<?xml version="1.0" encoding="utf-8"?>
<!-- Generator: Adobe Illustrator 21.1.0, SVG Export Plug-In . SVG Version: 6.00 Build 0)  -->
<svg version="1.1" id="Layer_1" xmlns="http://www.w3.org/2000/svg" xmlns:xlink="http://www.w3.org/1999/xlink" x="0px" y="0px"
	 viewBox="0 0 1479 359" style="enable-background:new 0 0 1479 359;" xml:space="preserve">
<style type="text/css">
	.st0{fill:#8E8BC9;}
	.st1{fill:#052055;}
</style>
<g>
	<path class="st0" d="M141,282.4c-20.1-4.5-38.7-12.2-54.2-22.8c-13.3-9-23.7-19.5-31.2-31.4c-8-12.8-12.1-26.6-12.1-40.8
		s4.1-28,12.1-40.8c7.4-11.9,17.9-22.4,31.2-31.4c19.2-13,42.9-21.7,68.7-25.4l-0.5,28.8c-19.7,3.4-37.6,10.3-52.2,20.1
		c-19.8,13.4-30.8,30.7-30.8,48.7s10.9,35.3,30.8,48.7c10.9,7.4,23.7,13.1,37.7,16.9c-0.9,2.6-1.5,5.3-1.9,8.1
		C137.6,268.6,138.5,275.8,141,282.4z M304.8,256.4c-1.5-3.4-3.8-8.3-5.2-11.9c16.4-16.7,25-36.3,25-57.1c0-14.2-4.1-28-12.1-40.8
		c-7.4-11.9-17.9-22.4-31.2-31.4c-11.5-7.8-24.7-14.1-38.9-18.6l-3.6,28.8c9.7,3.5,18.6,8,26.6,13.4c19.8,13.4,30.8,30.7,30.8,48.7
		c0,18.4-11.2,32.3-20.6,40.8c-8.8,7.9-4.7,19.9-3.4,23.9c1.4,4.1,3.5,8.8,5.6,13.5c-1.4-0.7-2.8-1.4-4-2
		c-15.8-7.9-26.4-12.9-35.1-12.9c-2.1,0-4.1,0.3-6,0.9c-2.7,0.9-5.5,1.6-8.4,2.3c1.8,5.9,2.4,12.2,1.6,18.6
		c-0.5,3.8-1.4,7.4-2.8,10.7c5.5-1.1,10.9-2.5,16.2-4.1c4.4,1.1,15.2,6.5,21.8,9.8c14.7,7.4,25.8,12.9,35,12.9
		c3.4,0,6.5-0.8,9.5-2.5c5.5-3.2,8.6-9,8.4-15.9c-0.1-2.9-0.7-6-1.9-9.8C310.3,268.4,307.5,262.3,304.8,256.4z"/>
	<g>
		<g>
			
				<ellipse transform="matrix(0.1291 -0.9916 0.9916 0.1291 -105.9272 413.06)" class="st1" cx="182.2" cy="266.8" rx="32.7" ry="32.7"/>
		</g>
	</g>
	<g>
		<g>
			<path class="st1" d="M229.8,71c-1.6-12.3-9.2-11.9-32.4-13.6C179.4,56,170,61,168.3,77.2c-1.4,12.8-6.5,129.3-3.5,135.3
				c3,6,38.9,10.5,43.6,5.7S231.5,84.3,229.8,71z"/>
		</g>
	</g>
	<g>
		<g>
			<path class="st1" d="M395.2,127.8h25.3l19.7,86.4l23-86.4h22.5l22.8,86.4l19.7-86.4h25.3l-29.3,122.4h-25l-24.8-86.4l-25,86.4
				h-25L395.2,127.8z"/>
			<path class="st1" d="M566.9,127.8h51.6c10.3,0,18.7,2.9,25.3,8.6c6.6,5.7,9.9,16.9,9.9,33.4c0,28.7-11.4,43-34.3,43
				c-3.5,0-8.1-0.3-13.7-0.9c-5.6-0.6-10.4-1.2-14.4-1.7v40h-24.5V127.8z M615.8,190.8c4.4,0,7.7-1.7,10-5c2.3-3.3,3.4-8.6,3.4-15.9
				c0-13.5-4.3-20.2-12.9-20.2h-24.8v41H615.8z"/>
			<path class="st1" d="M712.4,155.7c0-9.9,2.7-17.1,8.2-21.4c5.5-4.4,12.1-6.5,19.8-6.5c22,0,39.6,0.7,53,2.2v20.5h-46.2
				c-3.3,0-5.8,0.9-7.6,2.7c-1.8,1.8-2.6,4.2-2.6,7v21l48.5,1.3v19.4l-48.5,1.3v47h-24.5V155.7z"/>
			<path class="st1" d="M817.3,247.1c-5.7-2.6-9.9-7.2-12.5-13.7c-2.6-6.5-3.9-15.7-3.9-27.5c0-12.1,1.2-21.5,3.6-28
				c2.4-6.6,6.4-11.2,12-13.8c5.6-2.6,13.4-4,23.6-4c9,0,16.2,0.9,21.3,2.6c5.2,1.8,9,4.9,11.3,9.3c2.4,4.4,3.6,10.6,3.6,18.7
				c0,8.6-2.5,14.7-7.4,18.4c-4.9,3.6-12.1,5.5-21.4,5.5h-22.3c0.2,4.7,0.9,8.4,2.2,11c1.2,2.6,3.4,4.5,6.5,5.6
				c3.1,1.2,7.6,1.7,13.6,1.7h26v14.4c-5.8,1.2-11.1,2.2-15.9,2.8c-4.7,0.7-10.3,1-16.5,1C830.9,251.1,823,249.7,817.3,247.1z
				 M845.1,199.9c3.4,0,5.9-0.7,7.4-2.1c1.5-1.4,2.2-3.7,2.2-7c0-4.9-1.1-8.2-3.3-10.2c-2.2-1.9-6-2.9-11.3-2.9
				c-3.9,0-6.9,0.6-9,1.9c-2.2,1.3-3.7,3.5-4.7,6.7c-1,3.2-1.5,7.7-1.5,13.6H845.1z"/>
			<path class="st1" d="M906.2,247.1c-5.7-2.6-9.9-7.2-12.5-13.7c-2.6-6.5-3.9-15.7-3.9-27.5c0-12.1,1.2-21.5,3.6-28
				c2.4-6.6,6.4-11.2,12-13.8c5.6-2.6,13.4-4,23.6-4c9,0,16.2,0.9,21.3,2.6c5.2,1.8,9,4.9,11.3,9.3c2.4,4.4,3.6,10.6,3.6,18.7
				c0,8.6-2.5,14.7-7.4,18.4c-4.9,3.6-12.1,5.5-21.4,5.5h-22.3c0.2,4.7,0.9,8.4,2.2,11c1.2,2.6,3.4,4.5,6.5,5.6
				c3.1,1.2,7.6,1.7,13.6,1.7h26v14.4c-5.8,1.2-11.1,2.2-15.9,2.8c-4.7,0.7-10.3,1-16.5,1C919.8,251.1,911.9,249.7,906.2,247.1z
				 M934,199.9c3.4,0,5.9-0.7,7.4-2.1c1.5-1.4,2.2-3.7,2.2-7c0-4.9-1.1-8.2-3.3-10.2c-2.2-1.9-6-2.9-11.3-2.9c-3.9,0-6.9,0.6-9,1.9
				c-2.2,1.3-3.7,3.5-4.7,6.7c-1,3.2-1.5,7.7-1.5,13.6H934z"/>
			<path class="st1" d="M986.5,240.8c-5.2-6.9-7.9-18.3-7.9-34.1c0-11.3,1-20.2,3.1-27c2-6.7,5.5-11.7,10.3-14.9
				c4.9-3.2,11.5-4.8,20-4.8c7.3,0,14.8,1.4,22.7,4.1V124h24.7v126.3h-20.7l-4-8.4c-3.1,2.6-6.8,4.9-11.3,6.7
				c-4.4,1.8-8.8,2.7-13.1,2.7C999.7,251.2,991.7,247.7,986.5,240.8z M1034.7,226.6v-44.7c-2.9-1.1-5.4-2-7.7-2.6
				c-2.3-0.6-4.6-0.9-7-0.9c-4.3,0-7.6,0.7-10,2.2c-2.4,1.5-4.1,4.2-5.2,8.1c-1.1,3.9-1.7,9.5-1.7,16.8c0,6.9,0.5,12.3,1.6,16
				c1,3.7,2.7,6.3,5,7.8c2.3,1.5,5.4,2.2,9.3,2.2C1024.3,231.5,1029.5,229.9,1034.7,226.6z"/>
			<path class="st1" d="M1078.9,127.8h48.2c23.3,0,34.9,10.7,34.9,32.1c0,7.3-1.5,13.2-4.5,17.8c-3,4.6-7.2,7.6-12.6,9
				c6,1.4,10.9,4.6,15,9.6c4,5,6,11.7,6,20.2c0,12.1-3.1,20.8-9.2,26c-6.1,5.2-15.3,7.8-27.6,7.8h-50.3V127.8z M1127.2,178.2
				c3.5,0,6.3-1.3,8.4-4c2-2.6,3.1-6.2,3.1-10.6c0-4.9-1.1-8.4-3.2-10.6c-2.2-2.2-5-3.3-8.5-3.3h-23.5v28.5H1127.2z M1128.6,228.2
				c9.4,0,14.1-5.3,14.1-16.1c0-4.6-1.3-8.3-3.9-11c-2.6-2.7-6-4.1-10.2-4.1h-25.2v31.1H1128.6z"/>
			<path class="st1" d="M1183.9,245.2c-4.1-4-6.2-9.5-6.2-16.5v-7.9c0-7.1,2.5-12.7,7.4-16.9c4.9-4.2,12.2-6.3,21.9-6.3h22.7v-6.1
				c0-3-0.5-5.3-1.5-7c-1-1.7-2.9-3-5.6-3.8c-2.8-0.8-6.8-1.2-12.2-1.2h-26.6v-14.2c10.9-3.3,22.8-5,35.6-5
				c11.7,0,20.4,2.2,26.2,6.6c5.8,4.4,8.7,12.1,8.7,23v60.4h-19.4l-4-9.4c-1.2,1.2-3.4,2.6-6.5,4.3c-3.1,1.7-6.8,3.1-11,4.3
				c-4.2,1.2-8.6,1.8-13,1.8C1193.5,251.2,1188,249.2,1183.9,245.2z M1222.5,232.4c3.7-1.2,6.1-2,7.1-2.6v-20.7l-14.9,1
				c-8.4,0.7-12.6,4.3-12.6,10.9v3.6c0,6.3,3.6,9.4,10.9,9.4C1215.6,234.2,1218.8,233.6,1222.5,232.4z"/>
			<path class="st1" d="M1279.6,241.1c-6.5-6.7-9.8-18.4-9.8-34.9c0-11.8,1.4-21.1,4.3-27.8c2.9-6.7,7.1-11.5,12.6-14.2
				c5.5-2.8,12.5-4.1,21-4.1c10.7,0,21,1.4,30.9,4.1v14.1h-23.3c-5.3,0-9.4,0.8-12.4,2.3c-3,1.5-5.2,4.3-6.5,8.3
				c-1.4,4-2.1,9.7-2.1,17.2c0,7.4,0.7,13,2.1,16.8c1.4,3.8,3.6,6.4,6.5,7.8c3,1.4,7.2,2.1,12.7,2.1h24.3v13.9
				c-4.2,1.3-9.3,2.4-15.4,3.3c-6.1,0.9-11.9,1.3-17.5,1.3C1295.3,251.2,1286.1,247.9,1279.6,241.1z"/>
			<path class="st1" d="M1353.6,124h24.5v68.2h10.4l19.5-30.8h24.8l-26.1,41.9l28.8,47h-24.8l-22.5-36.1h-10.1v36.1h-24.5V124z"/>
		</g>
	</g>
</g>
</svg>
