<svg width="12px" height="16px" viewBox="0 0 12 16" version="1.1" xmlns="http://www.w3.org/2000/svg" xmlns:xlink="http://www.w3.org/1999/xlink">
    <g transform="translate(-824, -1413)">
        <g transform="translate(440, 838)">
            <g transform="translate(230, 0)">
                <g transform="translate(0, 61)">
                    <g transform="translate(60, 378)">
                        <g transform="translate(0, 97)">
                            <g transform="translate(0, 27)">
                                <g transform="translate(92, 12)">
                                    <path d="M13,0 C13.5522847,-1.01453063e-16 14,0.44771525 14,1 L14,15 C14,15.5522847 13.5522847,16 13,16 C12.4477153,16 12,15.5522847 12,15 L12,1 C12,0.44771525 12.4477153,1.01453063e-16 13,0 Z M3,4 L9,4 C9.55228475,4 10,4.44771525 10,5 L10,11 C10,11.5522847 9.55228475,12 9,12 L3,12 C2.44771525,12 2,11.5522847 2,11 L2,5 C2,4.44771525 2.44771525,4 3,4 Z" fill="#666"></path>
                                </g>
                            </g>
                        </g>
                    </g>
                </g>
            </g>
        </g>
    </g>
</svg>
