<svg width="16px" height="12px" viewBox="0 0 16 12" version="1.1" xmlns="http://www.w3.org/2000/svg" xmlns:xlink="http://www.w3.org/1999/xlink">
    <g transform="translate(-822, -1524)">
        <g transform="translate(440, 838)">
            <g transform="translate(230, 0)">
                <g transform="translate(0, 61)">
                    <g transform="translate(60, 378)">
                        <g transform="translate(0, 206)">
                            <g transform="translate(0, 27)">
                                <g transform="translate(92, 12)">
                                    <path d="M1,2 L15,2 C15.5522847,2 16,2.44771525 16,3 C16,3.55228475 15.5522847,4 15,4 L1,4 C0.44771525,4 6.76353751e-17,3.55228475 0,3 C-6.76353751e-17,2.44771525 0.44771525,2 1,2 Z M5,6 L11,6 C11.5522847,6 12,6.44771525 12,7 L12,13 C12,13.5522847 11.5522847,14 11,14 L5,14 C4.44771525,14 4,13.5522847 4,13 L4,7 C4,6.44771525 4.44771525,6 5,6 Z" fill="#666"></path>
                                </g>
                            </g>
                        </g>
                    </g>
                </g>
            </g>
        </g>
    </g>
</svg>
